<?xml version="1.0" encoding="utf-8"?>
<!-- Generator: Adobe Illustrator 18.0.0, SVG Export Plug-In . SVG Version: 6.00 Build 0)  -->
<!DOCTYPE svg PUBLIC "-//W3C//DTD SVG 1.1//EN" "http://www.w3.org/Graphics/SVG/1.1/DTD/svg11.dtd">
<svg version="1.1" id="Layer_1" xmlns="http://www.w3.org/2000/svg" xmlns:xlink="http://www.w3.org/1999/xlink" x="0px" y="0px"
	 viewBox="0 0 8.8 8.8" enable-background="new 0 0 8.8 8.8" xml:space="preserve">
<g>
	<path fill="#FFFFFF" d="M5.3,6.5c-1.7,0-3.1-1.4-3.1-3.1c0-0.9,0.4-1.7,0.9-2.2c-1.4,0.3-2.4,1.5-2.4,3c0,1.7,1.4,3.1,3.1,3.1
		C4.7,7.3,5.4,7,6,6.4C5.8,6.5,5.5,6.5,5.3,6.5z"/>
	<path fill="#FFFFFF" d="M7,3.2c-0.8,0-1.5-0.7-1.5-1.5c0-0.4,0.1-0.7,0.3-0.9C5.3,1,4.9,1.5,4.9,2.1c0,0.8,0.7,1.5,1.5,1.5
		c0.5,0,0.9-0.2,1.2-0.6C7.4,3.2,7.2,3.2,7,3.2z"/>
</g>
</svg>
